PathFileType	4	(X/Y/Z)	 s10c0402.trc
DataRate	CameraRate	NumFrames	NumMarkers	Units	OrigDataRate	OrigDataStartFrame	OrigNumFrames
200	200	6	49	mm	200	1251	2000
Frame#	Time	racr			lacr			c7			jug			rlel			rdr			llel			ldr			s2			lic			ric			lasi			rasi			rpsi			lpsi			rgt			lgt			rth1			rth2			rth3			rth4			rlfc			rmfc			rsh1			rsh2			rsh3			rsh4			rlmal			rmmal			rcal			rtoe			rmt5			lth1			lth2			lth4			lth3			llfc			lmfc			llmal			lcal			lmt5			lsh1			lsh2			lsh3			lsh4			ltoe			SBIKE			LBIKE			RBIKE			
		X1	Y1	Z1	X2	Y2	Z2	X3	Y3	Z3	X4	Y4	Z4	X5	Y5	Z5	X6	Y6	Z6	X7	Y7	Z7	X8	Y8	Z8	X9	Y9	Z9	X10	Y10	Z10	X11	Y11	Z11	X12	Y12	Z12	X13	Y13	Z13	X14	Y14	Z14	X15	Y15	Z15	X16	Y16	Z16	X17	Y17	Z17	X18	Y18	Z18	X19	Y19	Z19	X20	Y20	Z20	X21	Y21	Z21	X22	Y22	Z22	X23	Y23	Z23	X24	Y24	Z24	X25	Y25	Z25	X26	Y26	Z26	X27	Y27	Z27	X28	Y28	Z28	X29	Y29	Z29	X30	Y30	Z30	X31	Y31	Z31	X32	Y32	Z32	X33	Y33	Z33	X34	Y34	Z34	X35	Y35	Z35	X36	Y36	Z36	X37	Y37	Z37	X38	Y38	Z38	X39	Y39	Z39	X40	Y40	Z40	X41	Y41	Z41	X42	Y42	Z42	X43	Y43	Z43	X44	Y44	Z44	X45	Y45	Z45	X46	Y46	Z46	X47	Y47	Z47	X48	Y48	Z48	X49	Y49	Z49	
1251	6.2550	675.851924	1360.420795	-61.180800	685.276568	1299.427080	-342.014743	668.805989	1341.900051	-198.256961	656.377558	1194.472796	-171.560606	585.858848	1114.041062	64.324084	630.071221	908.800023	6.408510	541.976488	1085.290950	-483.567817	646.559330	914.741254	-392.800844	133.195768	1158.036574	-201.207801	290.999953	1145.068684	-348.200574	312.350987	1161.708904	-49.752267	300.596680	1063.924124	-320.253648	310.547943	1066.339763	-67.772162	186.160942	1206.427058	-153.650398	185.170345	1212.619091	-261.188815	204.770171	1056.782778	-14.519009	166.037266	1032.153118	-386.774540	269.143812	913.805083	7.325687	327.942892	848.624630	-7.548058	345.948336	765.265409	-13.117976	358.980897	867.461128	-15.010726	387.606905	663.986168	-30.247419	378.391259	664.035911	-147.518652	285.403493	608.282654	0.160424	230.986182	540.881550	-18.139007	150.885997	508.549781	-23.817532	249.510885	522.618246	-46.302322	60.822666	451.497366	-42.399505	89.110760	445.525189	-122.784496	32.002607	496.188842	-91.689867	74.525923	255.251767	-100.007851	27.971042	326.216720	-38.040886	240.470555	923.707482	-403.299123	316.537244	882.616115	-395.587917	340.900672	908.472250	-387.324771	361.724288	806.440219	-391.963030	447.500575	716.334933	-373.116356	453.616597	710.078598	-257.721998	249.416623	386.514920	-372.765634	185.207116	358.989371	-331.512772	353.574561	293.095967	-383.886846	379.684995	611.782997	-402.027249	361.462655	527.740203	-385.538991	301.981438	461.910331	-386.731162	383.452508	520.700927	-355.264063	434.351362	316.346166	-322.337438	-167.763256	823.900227	-219.034172	-78.178254	81.815636	-423.693868	-102.619393	80.612701	-24.448720	
1252	6.2600	677.509723	1360.348612	-60.768761	683.361069	1299.784771	-341.917290	668.326089	1342.046482	-198.117349	655.976662	1194.723385	-171.097293	587.172910	1114.198750	64.804733	629.720447	908.822147	5.758815	540.374245	1085.551336	-482.918384	646.501868	914.846751	-392.821903	133.234783	1157.460483	-204.637131	293.752240	1144.098415	-348.759845	309.920806	1161.596387	-49.875480	303.025037	1062.807220	-321.192392	308.880891	1066.649379	-69.505345	184.858140	1205.733145	-156.422333	185.506819	1211.344472	-263.051664	203.513065	1056.367357	-16.753931	168.010707	1030.493130	-388.300880	269.657707	915.077091	5.839298	330.055799	850.999090	-8.504451	349.531892	768.065203	-13.915758	360.725059	870.380237	-15.749461	393.871266	667.712500	-31.256345	385.266933	670.480378	-148.484739	291.729374	612.486414	-1.022448	235.343115	546.305701	-19.456634	154.834031	515.728162	-24.344398	253.366893	528.170574	-48.293488	63.037967	462.231590	-42.286342	91.016548	455.839525	-122.891981	34.358526	507.037580	-91.827104	76.308896	265.932153	-99.983887	29.929093	336.967382	-37.991212	240.643002	920.101557	-403.971193	315.073349	876.254979	-395.518822	340.429862	901.345422	-387.286624	357.502171	798.471513	-391.337665	439.884903	704.263734	-371.077131	445.536690	697.914782	-257.111225	246.209296	374.313054	-372.361254	182.254298	346.350736	-331.292473	351.190794	282.276548	-383.942045	373.545879	598.817074	-399.930495	356.071665	514.628553	-382.950911	297.503012	447.901825	-385.554744	377.594598	508.063271	-352.207640	431.908516	306.137297	-322.383626	-167.793731	823.851661	-219.182406	-78.195184	81.782584	-423.711536	-102.631519	80.619685	-24.447316	
1253	6.2650	679.097866	1360.230193	-60.338833	681.422764	1300.384216	-341.689039	667.831341	1342.188612	-197.974544	655.743982	1195.111945	-170.527755	588.481098	1114.327326	65.215677	629.722359	908.898868	5.720161	538.913251	1085.722174	-482.218168	646.467845	914.986451	-392.785882	133.371901	1156.972550	-206.855547	296.308907	1142.873392	-348.988027	307.560241	1161.209585	-50.154972	305.521001	1061.608883	-322.113261	307.377944	1066.922065	-71.285262	185.114121	1203.624355	-156.777558	186.370348	1210.593154	-265.627671	202.230594	1055.803539	-18.916141	170.059553	1028.451996	-389.729919	270.386996	916.212717	4.474241	332.015212	853.386072	-9.427747	352.924056	770.752379	-14.532473	362.099033	872.799263	-16.887032	400.159740	671.358326	-31.899306	389.703064	674.812848	-149.888662	297.800201	616.794635	-2.215610	239.946940	552.194113	-20.686233	158.595068	522.979702	-24.764363	257.962919	534.533862	-49.703874	65.525895	472.817515	-42.411808	93.065268	466.168486	-122.841124	37.380470	518.043316	-92.055396	78.961638	276.772869	-99.792565	32.447510	347.783317	-37.771599	241.461791	916.328886	-404.816245	313.735792	869.625814	-395.356233	339.962307	893.827760	-387.138598	353.197105	790.237369	-390.659562	432.081105	692.423351	-368.832699	436.932066	685.665055	-256.584572	242.604609	363.138831	-372.587326	178.835095	334.378050	-331.065159	348.322920	271.470380	-383.928575	366.670917	587.407604	-398.238369	350.380962	502.926354	-381.185172	293.629038	434.832005	-383.509975	371.807862	496.935896	-350.195449	428.926895	295.929981	-322.462315	-167.733441	823.931446	-218.941484	-78.181368	81.810631	-423.676460	-102.614963	80.598042	-24.441951	
1254	6.2700	680.670794	1360.118961	-59.923068	679.482257	1300.967724	-341.431528	667.164327	1342.335556	-197.772589	655.930239	1195.466193	-168.330099	589.755672	1114.396252	65.580251	629.662854	908.915903	5.643100	537.595648	1085.945826	-481.399330	646.433420	915.121855	-392.782541	133.277196	1155.528179	-209.221733	299.064219	1141.702825	-349.385424	305.365745	1160.423966	-50.202732	308.159174	1060.275275	-322.887098	305.900765	1066.928078	-72.431674	184.123998	1202.677203	-159.603204	187.702033	1209.072284	-268.039541	200.969701	1054.993246	-21.111412	172.365271	1026.009560	-391.226576	271.220115	917.611027	3.402039	333.930068	855.583978	-10.189810	356.187492	773.302731	-15.103255	364.552242	876.606305	-17.125142	406.234839	674.931983	-32.641924	394.072553	678.998356	-151.234403	303.837354	621.254276	-3.502999	244.199895	557.978202	-22.021266	162.331419	530.521150	-25.271324	261.519438	540.308087	-51.454995	68.257477	483.545512	-42.447647	95.288512	476.671118	-123.075119	39.604115	528.495039	-91.768805	82.425975	287.686724	-99.739281	35.662956	358.513543	-37.576591	242.160450	912.159106	-405.343902	312.561808	862.684949	-395.264482	339.603590	885.911217	-386.993494	349.444458	781.999325	-390.267972	424.102801	681.239298	-366.783755	429.215899	673.835658	-255.115740	238.801856	351.392222	-371.384345	175.017710	322.882579	-330.846269	344.850508	260.987820	-383.977496	358.785738	578.107728	-396.916857	344.106001	493.880843	-380.935157	288.708814	424.473098	-382.729896	366.144772	487.706006	-349.955811	425.344346	285.739820	-322.485031	-167.735832	823.898689	-218.994445	-78.162700	81.808581	-423.678460	-102.615475	80.600578	-24.442218	
1255	6.2750	682.244147	1359.949026	-59.499026	677.566355	1301.740601	-341.057128	666.529794	1342.492101	-197.662705	655.824288	1195.994263	-167.478867	590.805444	1114.328059	65.723940	629.565466	908.936412	5.556163	536.444743	1086.127825	-480.557306	646.402451	915.230073	-392.805815	133.485496	1153.845395	-212.052453	301.582488	1140.294210	-349.572425	303.198457	1159.431334	-50.661584	310.739930	1058.779942	-323.374837	304.290042	1066.830426	-73.504107	183.021942	1201.249668	-162.229804	188.669835	1207.472545	-270.343234	199.746091	1054.063491	-23.060517	174.790341	1023.337649	-392.719362	271.763647	918.361381	2.424088	335.725133	857.762227	-10.708506	359.519414	775.658826	-15.736028	365.640189	878.807412	-18.138253	412.216323	678.520711	-33.239407	398.236401	682.559474	-152.157658	310.008487	625.913227	-4.460728	248.444526	563.991373	-23.053688	166.147392	538.171485	-25.596449	265.250478	546.725457	-52.722589	71.477823	494.246323	-42.652284	98.057751	486.705032	-122.726231	42.150058	538.862851	-92.042137	86.653376	298.516618	-99.579139	39.502055	369.082145	-37.393374	243.041170	907.683776	-405.920217	311.436579	855.525984	-395.311383	339.459295	878.151810	-387.630361	345.213445	773.555230	-389.141845	416.243912	670.845778	-364.672510	417.653197	662.194551	-254.712708	234.406260	340.656321	-370.979836	170.763808	311.995103	-330.600265	340.744451	250.813675	-384.008308	350.575772	569.616679	-396.254763	337.393444	485.208976	-380.490554	282.965261	414.994083	-381.983401	359.998661	479.090312	-350.027513	421.283191	275.531764	-322.527493	-167.762829	823.880617	-219.040422	-78.173146	81.803015	-423.672581	-102.622209	80.580197	-24.438203	
1256	6.2800	683.814234	1359.713371	-58.979796	675.681755	1302.559653	-340.622145	665.835609	1342.797896	-197.422303	655.560295	1196.478758	-166.852480	591.857412	1114.302437	65.954864	629.517081	908.957413	5.484261	535.396650	1086.303999	-479.640086	646.350138	915.326267	-392.820430	133.315332	1151.873015	-214.357317	304.169362	1138.947179	-349.828740	301.145949	1158.164459	-51.208811	312.751586	1056.799736	-322.424641	302.652765	1066.335394	-74.662393	181.964553	1199.893760	-164.703113	189.305446	1205.321547	-272.371452	198.467766	1052.924596	-25.026335	177.407044	1020.371131	-394.471284	272.302210	919.243237	1.744035	337.482700	859.772232	-11.223781	362.809495	777.864321	-17.026625	367.004634	881.358395	-18.746330	418.137882	682.146108	-33.755709	401.501900	685.524109	-153.117028	315.637854	631.238860	-5.166512	252.913657	570.628676	-23.682868	169.999393	546.304587	-25.850520	267.486789	552.453317	-54.594897	74.938257	504.697686	-42.640596	101.016173	496.658589	-122.358874	45.218279	549.096507	-92.150145	91.666699	309.205441	-99.382745	43.936254	379.518371	-37.231971	244.106727	902.882140	-406.574778	310.322512	848.065326	-395.118848	339.138596	869.685723	-387.355086	340.878730	764.916356	-387.916347	408.442235	661.302614	-362.676252	407.440554	654.102492	-252.299703	229.369498	330.628694	-370.608605	166.081210	301.756060	-330.574132	336.133005	240.719859	-384.082232	342.037091	561.471417	-395.255921	330.244642	476.687395	-379.918066	276.864439	405.765698	-381.285027	353.456224	470.731158	-349.932161	416.706947	265.495776	-322.702081	-167.706481	823.856131	-219.025379	-78.182006	81.756816	-423.680043	-102.625495	80.578080	-24.444987	
